<svg width="16" height="16" viewBox="0 0 16 16" fill="none" xmlns="http://www.w3.org/2000/svg">
<path d="M7 7V12H6V7H7Z" fill="black"/>
<path d="M10 12V7H9V12H10Z" fill="black"/>
<path fill-rule="evenodd" clip-rule="evenodd" d="M4.83334 4V2.83333C4.83334 2.3471 5.02649 1.88079 5.37031 1.53697C5.71412 1.19315 6.18044 1 6.66667 1H9.33334C9.81957 1 10.2859 1.19315 10.6297 1.53697C10.9735 1.88079 11.1667 2.3471 11.1667 2.83333V4H14V5H13V13.3333C13 13.8196 12.8068 14.2859 12.463 14.6297C12.1192 14.9735 11.6529 15.1667 11.1667 15.1667H4.83333C4.3471 15.1667 3.88079 14.9735 3.53697 14.6297C3.19315 14.2859 3 13.8196 3 13.3333V5H2V4H4.83334ZM6.07741 2.24408C6.23369 2.0878 6.44566 2 6.66667 2H9.33334C9.55435 2 9.76631 2.0878 9.92259 2.24408C10.0789 2.40036 10.1667 2.61232 10.1667 2.83333V4H5.83334V2.83333C5.83334 2.61232 5.92113 2.40036 6.07741 2.24408ZM4 5V13.3333C4 13.5543 4.0878 13.7663 4.24408 13.9226C4.40036 14.0789 4.61232 14.1667 4.83333 14.1667H11.1667C11.3877 14.1667 11.5996 14.0789 11.7559 13.9226C11.9122 13.7663 12 13.5543 12 13.3333V5H4Z" fill="black"/>
</svg>
